# AST/ASF file generated using VICON BodyLanguage
# -----------------------------------------------
:version 1.10
:name VICON
:units
  mass 1.0
  length 0.45
  angle deg
:documentation
   .ast/.asf automatically generated from VICON data using
   VICON BodyBuilder and BodyLanguage model FoxedUp or BRILLIANT.MOD
:root
   order TX TY TZ RX RY RZ
   axis XYZ
   position 0 0 0  
   orientation 0 0 0 
:bonedata
  begin
     id 1 
     name lhipjoint
     direction 0.584852 -0.759097 0.285867 
     length 2.43633 
     axis 0 0 0  XYZ
  end
  begin
     id 2 
     name lfemur
     direction 0.34202 -0.939693 0  
     length 7.14704  
     axis 0 0 20  XYZ
    dof rx ry rz
    limits (-160.0 20.0)
           (-70.0 70.0)
           (-60.0 70.0)
  end
  begin
     id 3 
     name ltibia
     direction 0.342022 -0.939692 0   
     length 7.68483   
     axis 0 0 20   XYZ
    dof rx
    limits (-10.0 170.0)
  end
  begin
     id 4 
     name lfoot
     direction 0.0999605 -0.274639 0.956337   
     length 2.40452   
     axis -90 7.62852e-016 20   XYZ
    dof rx rz
    limits (-45.0 90.0)
           (-70.0 20.0)
  end
  begin
     id 5 
     name ltoes
     direction 1.53468e-011 -4.21881e-011 1   
     length 1.19837   
     axis -90 7.62852e-016 20   XYZ
    dof rx
    limits (-90.0 20.0)
  end
  begin
     id 6 
     name rhipjoint
     direction -0.569886 -0.769002 0.289597   
     length 2.40495  
     axis 0 0 0  XYZ 
  end
  begin
     id 7 
     name rfemur
     direction -0.34202 -0.939693 0   
     length 7.45086   
     axis 0 0 -20   XYZ
    dof rx ry rz
    limits (-160.0 20.0)
           (-70.0 70.0)
           (-70.0 60.0)
  end
  begin
     id 8 
     name rtibia
     direction -0.34202 -0.939693 0   
     length 7.76831   
     axis 0 0 -20   XYZ
    dof rx
    limits (-10.0 170.0)
 end
 begin
     id 9 
     name rfoot
     direction -0.0798572 -0.219406 0.97236   
     length 2.35911  
     axis -90 -7.62852e-016 -20   XYZ
    dof rx rz
    limits (-45.0 90.0)
           (-20.0 70.0)
  end
  begin
     id 10 
     name rtoes
     direction -1.53469e-011 -4.21728e-011 1   
     length 1.18261   
     axis -90 -7.62852e-016 -20   XYZ
    dof rx
    limits (-90.0 20.0)
  end
  begin
     id 11 
     name lowerback
     direction 0.0242088 0.999437 0.0232389   
     length 2.1561   
     axis 0 0 0   XYZ
    dof rx ry rz
    limits (-20.0 45.0)
           (-30.0 30.0)
           (-30.0 30.0)
  end
  begin
     id 12 
     name upperback
     direction -0.0356893 0.999013 -0.0264323   
     length 2.14431   
     axis 0 0 0   XYZ
    dof rx ry rz
    limits (-20.0 45.0)
           (-30.0 30.0)
           (-30.0 30.0)
  end
  begin
     id 13 
     name thorax
     direction -0.0472163 0.998194 -0.0371284   
     length 2.16169   
     axis 0 0 0   XYZ
    dof rx ry rz
    limits (-20.0 45.0)
           (-30.0 30.0)
           (-30.0 30.0)
  end
  begin
     id 14 
     name lowerneck
     direction 0.00863244 0.999921 0.00911972   
     length 1.58651   
     axis 0 0 0   XYZ
    dof rx ry rz
    limits (-20.0 45.0)
           (-30.0 30.0)
           (-30.0 30.0)
  end
  begin
     id 15 
     name upperneck
     direction 0.149523 0.979068 -0.138086   
     length 1.57486   
     axis 0 0 0   XYZ
    dof rx ry rz
    limits (-20.0 45.0)
           (-30.0 30.0)
           (-30.0 30.0)
  end
  begin
     id 16
     name head
     direction 0.0445219 0.997708 -0.0509576  
     length 1.6019  
     axis 0 0 0   XYZ
    dof rx ry rz
    limits (-20.0 45.0)
           (-30.0 30.0)
           (-30.0 30.0)
  end
  begin
     id 17 
     name lclavicle
     direction 0.911271 0.381667 -0.154644  
     length 3.80848  
     axis 0 0 0   XYZ
    dof ry rz
    limits (-20.0 10.0)
           (0.0 20.0)
  end
  begin
     id 18 
     name lhumerus
     direction 1 -4.49003e-011 2.1308e-027   
     length 5.19069   
     axis 180 -30 -90   XYZ
    dof rx ry rz
    limits (-60.0 90.0)
           (-90.0 90.0)
           (-90.0 90.0)
  end
  begin
     id 19
     name lradius
     direction 1 -4.48914e-011 4.01554e-027   
     length 3.30016   
     axis 180 -30 -90   XYZ
    dof rx
    limits (-10.0 170.0)
  end
  begin
     id 20
     name lwrist
     direction 1 -4.49003e-011 1.1934e-026   
     length 1.65008   
     axis -8.46377e-015 90 90   XYZ
    dof ry
    limits (-180.0 0.0)
 end
  begin
     id 21 
     name lhand
     direction 1 -4.49034e-011 2.38659e-026   
     length 0.707698   
     axis -1.52313e-014 90 90   XYZ
    dof rx rz
    limits (-90.0 90.0)
           (-45.0 45.0)
  end
  begin
     id 22 
     name lfingers
     direction 1 -4.48691e-011 4.77775e-026   
     length 0.570564   
     axis -3.04623e-014 90 90   XYZ
    dof rx
    limits (0.0 90.0)
  end
  begin
     id 23
     name lthumb
     direction 0.707107 -6.34832e-011 0.707107   
     length 0.819219   
     axis -90 45 -1.62303e-014   XYZ
    dof rx rz
    limits (-45.0 45.0)
           (-45.0 45.0)
  end
  begin
     id 24 
     name rclavicle
     direction -0.815579 0.573708 -0.0754329   
     length 3.54371  
     axis 0 0 0   XYZ 
    dof ry rz
    limits (-10.0 20.0)
           (-20.0 0.0)
  end
  begin
     id 25 
     name rhumerus
     direction -1 -4.48956e-011 3.05351e-028  
     length 5.23924   
     axis 180 30 90   XYZ
    dof rx ry rz
    limits (-90.0 60.0)
           (-90.0 90.0)
           (-90.0 90.0)
  end
  begin
     id 26 
     name rradius
     direction -1 -4.49013e-011 3.53849e-027   
     length 3.32953   
     axis 180 30 90   XYZ
    dof rx
    limits (-10.0 170.0)
  end
  begin
     id 27 
     name rwrist
     direction -1 -4.48901e-011 1.19374e-026   
     length 1.66477   
     axis -8.46377e-015 -90 -90   XYZ
    dof ry
    limits (-180.0 0.0)
  end
  begin
     id 28
     name rhand
     direction -1 -4.48877e-011 2.38764e-026   
     length 0.607414   
     axis -1.52313e-014 -90 -90   XYZ
    dof rx rz
    limits (-90.0 90.0)
           (-45.0 45.0)
  end
  begin
     id 29
     name rfingers
     direction -1 -4.48882e-011 4.77521e-026   
     length 0.489712   
     axis -3.04623e-014 -90 -90   XYZ
    dof rx
    limits (0.0 90.0)
  end
  begin
     id 30
     name rthumb
     direction -0.707107 -6.34974e-011 0.707107   
     length 0.703132   
     axis -90 -45 1.62303e-014   XYZ
    dof rx rz
    limits (-45.0 45.0)
           (-45.0 45.0)
  end
:hierarchy
  begin
    root lhipjoint rhipjoint lowerback
    lhipjoint lfemur
    lfemur ltibia
    ltibia lfoot
    lfoot ltoes
    rhipjoint rfemur
    rfemur rtibia
    rtibia rfoot
    rfoot rtoes
    lowerback upperback
    upperback thorax
    thorax lowerneck lclavicle rclavicle
    lowerneck upperneck
    upperneck head
    lclavicle lhumerus
    lhumerus lradius
    lradius lwrist
    lwrist lhand lthumb
    lhand lfingers
    rclavicle rhumerus
    rhumerus rradius
    rradius rwrist
    rwrist rhand rthumb
    rhand rfingers
  end

#!OML:ASF E:\VariousWalksJay\Project 1\Capture day 1\Session 1\Actor2.ASF
:FULLY-SPECIFIED
:DEGREES
38
root 24.6261 17.0432 -29.2892 9.55204 -29.2201 -3.11467
lowerback 5.3995 -3.46063 3.20003
upperback 7.97735 -4.56744 -2.12357
thorax 4.8546 -2.08386 -3.93406
lowerneck -5.05431 -6.20408 -7.85524
upperneck -2.84674 -8.02238 16.8028
head 1.06176 -3.92624 6.11525
rclavicle 2.26615e-014 -8.74653e-015
rhumerus -46.3271 32.9154 -95.0239
rradius 63.0778
rwrist 2.63434
rhand -10.4708 -13.2095
rfingers 7.12502
rthumb 15.5303 -42.6058
lclavicle 2.26615e-014 -8.74653e-015
lhumerus -19.7387 -31.7297 83.3109
lradius 71.9079
lwrist 82.0564
lhand -7.69094 0.69369
lfingers 7.12502
lthumb 18.2062 29.8617
rfemur -29.456 -0.594745 23.7799
rtibia 48.3243
rfoot -25.865 -13.5736
rtoes -3.44916
lfemur -33.0726 16.1524 -19.7309
ltibia 44.1707
lfoot -19.3599 10.1305
ltoes -4.93336
39
root 24.6276 17.0422 -29.2893 9.54316 -29.197 -3.11254
lowerback 5.40412 -3.46288 3.21343
upperback 7.97707 -4.56971 -2.133
thorax 4.84988 -2.08412 -3.95093
lowerneck -5.00557 -6.19698 -7.86103
upperneck -2.88578 -8.01017 16.817
head 1.04182 -3.92355 6.12342
rclavicle -3.10104e-014 3.33958e-014
rhumerus -46.3306 32.9045 -95.0224
rradius 63.0834
rwrist 2.64137
rhand -10.4441 -13.2073
rfingers 7.12502
rthumb 15.5559 -42.6017
lclavicle -3.10104e-014 3.33958e-014
lhumerus -19.7208 -31.7695 83.2727
lradius 71.9295
lwrist 82.119
lhand -7.79747 0.710362
lfingers 7.12502
lthumb 18.1037 29.8878
rfemur -29.4581 -0.605919 23.7758
rtibia 48.3426
rfoot -25.8734 -13.5899
rtoes -3.4634
lfemur -33.0824 16.1403 -19.737
ltibia 44.1908
lfoot -19.3696 10.1304
ltoes -4.91852
40
root 24.6291 17.0413 -29.2894 9.53326 -29.1743 -3.11129
lowerback 5.41355 -3.46242 3.22318
upperback 7.97592 -4.56841 -2.13787
thorax 4.84245 -2.08301 -3.96074
lowerneck -4.96987 -6.19407 -7.86156
upperneck -2.92025 -8.00369 16.8213
head 1.02536 -3.92306 6.12686
rclavicle -7.55382e-015 2.14687e-014
rhumerus -46.335 32.8888 -95.0114
rradius 63.0899
rwrist 2.65345
rhand -10.4181 -13.2005
rfingers 7.12502
rthumb 15.581 -42.5928
lclavicle -7.55382e-015 2.14687e-014
lhumerus -19.696 -31.8131 83.2401
lradius 71.9468
lwrist 82.1867
lhand -7.90301 0.731347
lfingers 7.12502
lthumb 18.0022 29.9182
rfemur -29.4575 -0.617442 23.7724
rtibia 48.359
rfoot -25.8829 -13.6025
rtoes -3.4707
lfemur -33.0885 16.1269 -19.7413
ltibia 44.2074
lfoot -19.3785 10.1312
ltoes -4.89894
41
root 24.6305 17.0404 -29.2895 9.52303 -29.1547 -3.11079
lowerback 5.42122 -3.44873 3.24143
upperback 7.98414 -4.54943 -2.15018
thorax 4.8465 -2.07203 -3.98412
lowerneck -4.98173 -6.20719 -7.8235
upperneck -2.94377 -8.02041 16.816
head 1.02078 -3.9322 6.11799
rclavicle 3.97569e-014 -3.18055e-015
rhumerus -46.3161 32.8266 -94.9878
rradius 63.0952
rwrist 2.67299
rhand -10.3927 -13.1833
rfingers 7.12502
rthumb 15.6054 -42.5738
lclavicle 3.97569e-014 -3.18055e-015
lhumerus -19.6372 -31.9005 83.1877
lradius 71.9603
lwrist 82.2613
lhand -8.00853 0.755498
lfingers 7.12502
lthumb 17.9006 29.9517
rfemur -29.4554 -0.626761 23.7694
rtibia 48.3744
rfoot -25.8932 -13.6119
rtoes -3.47241
lfemur -33.0919 16.1157 -19.7447
ltibia 44.2221
lfoot -19.3859 10.1323
ltoes -4.89333
42
root 24.6319 17.0396 -29.2897 9.51109 -29.1357 -3.10985
lowerback 5.42123 -3.43203 3.26278
upperback 8.00056 -4.52673 -2.16548
thorax 4.86354 -2.05852 -4.01338
lowerneck -5.01323 -6.22652 -7.77248
upperneck -2.96721 -8.04557 16.8087
head 1.01989 -3.94491 6.10529
rclavicle 5.52621e-014 -3.97569e-015
rhumerus -46.2804 32.7541 -94.9576
rradius 63.099
rwrist 2.69294
rhand -10.3668 -13.1644
rfingers 7.12502
rthumb 15.6304 -42.5529
lclavicle 5.52621e-014 -3.97569e-015
lhumerus -19.5575 -31.9978 83.1221
lradius 71.9722
lwrist 82.3277
lhand -8.11391 0.786323
lfingers 7.12502
lthumb 17.7992 29.9917
rfemur -29.451 -0.638327 23.766
rtibia 48.3887
rfoot -25.9059 -13.6169
rtoes -3.46185
lfemur -33.0925 16.1049 -19.7479
ltibia 44.2358
lfoot -19.3931 10.1314
ltoes -4.88587
43
root 24.6333 17.0387 -29.29 9.49937 -29.1193 -3.10929
lowerback 5.41937 -3.41245 3.28293
upperback 8.02042 -4.50036 -2.18053
thorax 4.88578 -2.04308 -4.04211
lowerneck -5.06701 -6.25083 -7.71199
upperneck -2.98318 -8.078 16.7973
head 1.02514 -3.96016 6.08849
rclavicle 7.43455e-014 -2.38542e-015
rhumerus -46.238 32.6779 -94.9221
rradius 63.1039
rwrist 2.70747
rhand -10.3395 -13.1447
rfingers 7.12502
rthumb 15.6566 -42.5312
lclavicle 7.43455e-014 -2.38542e-015
lhumerus -19.4693 -32.0941 83.0552
lradius 71.9834
lwrist 82.375
lhand -8.21867 0.818409
lfingers 7.12502
lthumb 17.6984 30.033
rfemur -29.4467 -0.648533 23.7629
rtibia 48.4026
rfoot -25.9193 -13.6189
rtoes -3.44379
lfemur -33.0931 16.0973 -19.7509
ltibia 44.2499
lfoot -19.3989 10.1293
ltoes -4.88504
44
root 24.6346 17.0377 -29.2904 9.48906 -29.1031 -3.11219
lowerback 5.41862 -3.39275 3.30239
upperback 8.04095 -4.47394 -2.19238
thorax 4.90846 -2.02772 -4.0671
lowerneck -5.13357 -6.27753 -7.64872
upperneck -2.99236 -8.11414 16.7827
head 1.03462 -3.97651 6.06956
rclavicle 1.03368e-014 1.82882e-014
rhumerus -46.195 32.6081 -94.8838
rradius 63.1105
rwrist 2.71519
rhand -10.3106 -13.1312
rfingers 7.12502
rthumb 15.6845 -42.5155
lclavicle 1.03368e-014 1.82882e-014
lhumerus -19.3773 -32.1875 82.9904
lradius 71.9955
lwrist 82.4048
lhand -8.32426 0.855256
lfingers 7.12502
lthumb 17.5968 30.0789
rfemur -29.4427 -0.659761 23.7638
rtibia 48.4156
rfoot -25.9322 -13.621
rtoes -3.42665
lfemur -33.0951 16.0913 -19.7505
ltibia 44.265
lfoot -19.4032 10.127
ltoes -4.89416
45
root 24.6359 17.0368 -29.2909 9.47873 -29.0848 -3.11638
lowerback 5.41378 -3.37881 3.323
upperback 8.06277 -4.45535 -2.2033
thorax 4.93411 -2.01613 -4.09189
lowerneck -5.18986 -6.29823 -7.60003
upperneck -3.00707 -8.14139 16.7795
head 1.0409 -3.98893 6.05746
rclavicle 9.58142e-014 -7.95139e-015
rhumerus -46.1537 32.559 -94.8498
rradius 63.1197
rwrist 2.71417
rhand -10.2753 -13.1262
rfingers 7.12502
rthumb 15.7185 -42.5079
lclavicle 9.58142e-014 -7.95139e-015
lhumerus -19.2972 -32.2628 82.9315
lradius 72.0119
lwrist 82.416
lhand -8.43062 0.887042
lfingers 7.12502
lthumb 17.4945 30.1199
rfemur -29.4382 -0.675768 23.7669
rtibia 48.4278
rfoot -25.9444 -13.6217
rtoes -3.41189
lfemur -33.0975 16.085 -19.7487
ltibia 44.2815
lfoot -19.4058 10.1247
ltoes -4.90743
46
root 24.6373 17.0359 -29.2916 9.47076 -29.0617 -3.12292
lowerback 5.41496 -3.36808 3.34033
upperback 8.08041 -4.44096 -2.20877
thorax 4.95215 -2.00721 -4.10844
lowerneck -5.23892 -6.3162 -7.56183
upperneck -3.02107 -8.16478 16.7804
head 1.04635 -3.99956 6.0488
rclavicle -6.32135e-014 2.62396e-014
rhumerus -46.1218 32.5238 -94.8159
rradius 63.1332
rwrist 2.70348
rhand -10.237 -13.1241
rfingers 7.12502
rthumb 15.7554 -42.5028
lclavicle -6.32135e-014 2.62396e-014
lhumerus -19.2272 -32.3266 82.8837
lradius 72.0309
lwrist 82.4164
lhand -8.5376 0.916379
lfingers 7.12502
lthumb 17.3915 30.1583
rfemur -29.4352 -0.69495 23.7735
rtibia 48.439
rfoot -25.9557 -13.6237
rtoes -3.39474
lfemur -33.1034 16.0761 -19.7446
ltibia 44.2991
lfoot -19.4074 10.1211
ltoes -4.92241
